<svg width="16" height="16" viewBox="0 0 16 16" fill="none" xmlns="http://www.w3.org/2000/svg">
<rect width="16" height="16" fill="#C7C7C7"/>
<g id="icons">
<rect width="232" height="519" transform="translate(-20 -320)" fill="white"/>
<g id="Frame 3">
<g id="icon">
<g id="accounts">
<path id="Vector (Stroke)" d="M8.66634 12C8.66634 11.8232 8.59606 11.6533 8.47103 11.5283C8.34611 11.4036 8.17687 11.3331 8.00033 11.333C7.82359 11.333 7.65366 11.4034 7.52865 11.5283C7.40362 11.6533 7.33334 11.8232 7.33334 12V13.333H8.66634V12ZM9.33334 7.33301C9.70153 7.33301 10.0003 7.63181 10.0003 8C10.0003 8.36819 9.70153 8.66699 9.33334 8.66699H6.66634C6.2983 8.66682 6.00033 8.36808 6.00033 8C6.00033 7.63192 6.2983 7.33318 6.66634 7.33301H9.33334ZM9.33334 4.66699C9.70142 4.66699 10.0002 4.96497 10.0003 5.33301C10.0003 5.7012 9.70153 6 9.33334 6H6.66634C6.2983 5.99982 6.00033 5.70109 6.00033 5.33301C6.0005 4.96508 6.29841 4.66717 6.66634 4.66699H9.33334ZM14.0003 6C14.0003 5.82319 13.93 5.65335 13.805 5.52832C13.68 5.4033 13.5101 5.33301 13.3333 5.33301H12.6663V13.333H13.3333C13.5101 13.333 13.68 13.2627 13.805 13.1377C13.9298 13.0128 14.0002 12.8435 14.0003 12.667V6ZM2.00033 12.667C2.00041 12.8437 2.07069 13.0127 2.19564 13.1377C2.32059 13.2626 2.48965 13.3329 2.66634 13.333H3.33334V7.33301H2.66634C2.4898 7.33309 2.32056 7.40358 2.19564 7.52832C2.07062 7.65334 2.00033 7.82319 2.00033 8V12.667ZM11.3333 3.33301C11.3333 3.15639 11.2629 2.98724 11.138 2.8623C11.013 2.73728 10.8432 2.66699 10.6663 2.66699H5.33334C5.15652 2.66699 4.98668 2.73728 4.86166 2.8623C4.73691 2.98722 4.66643 3.15647 4.66634 3.33301V13.333H6.00033V12C6.00033 11.4696 6.21119 10.961 6.58627 10.5859C6.96132 10.211 7.46997 10 8.00033 10C8.53064 10.0001 9.0394 10.2109 9.41439 10.5859C9.78936 10.961 10.0003 11.4696 10.0003 12V13.333H11.3333V3.33301ZM12.6663 4H13.3333C13.8638 4 14.3723 4.21086 14.7474 4.58594C15.1225 4.96101 15.3333 5.46957 15.3333 6V12.667C15.3333 13.1973 15.1224 13.7061 14.7474 14.0811C14.3723 14.456 13.8637 14.667 13.3333 14.667H2.66634C2.13603 14.6669 1.62728 14.4561 1.25228 14.0811C0.877285 13.7061 0.66643 13.1973 0.666344 12.667V8C0.666344 7.46964 0.87731 6.96099 1.25228 6.58594C1.62728 6.21094 2.13603 6.00009 2.66634 6H3.33334V3.33301C3.33342 2.80269 3.54428 2.29394 3.91927 1.91895C4.29433 1.54397 4.80298 1.33301 5.33334 1.33301H10.6663C11.1966 1.33301 11.7054 1.54408 12.0804 1.91895C12.4554 2.29394 12.6663 2.80269 12.6663 3.33301V4Z" fill="#737373"/>
</g>
</g>
</g>
</g>
</svg>
