<svg width="16" height="16" viewBox="0 0 16 16" fill="none" xmlns="http://www.w3.org/2000/svg">
<rect width="16" height="16" fill="#C7C7C7"/>
<g id="icons">
<rect width="232" height="519" transform="translate(-20 -392)" fill="white"/>
<g id="Frame 3">
<g id="icon">
<g id="ad-library">
<path id="Vector (Stroke)" d="M13.332 2.66602C11.6257 4.01051 9.50477 4.71805 7.33301 4.66602L6 4.667V8.667H7.31641C9.49394 8.61096 11.6224 9.31812 13.333 10.666V2.667L13.332 2.66602ZM4.69824 10C4.8214 11.3491 5.31575 12.6427 6.13379 13.7334C6.23985 13.8747 6.39739 13.9681 6.57227 13.9932C6.7473 14.0182 6.92496 13.9723 7.06641 13.8662C7.20778 13.7602 7.30113 13.6027 7.32617 13.4277C7.35116 13.2528 7.30614 13.075 7.2002 12.9336C6.55543 12.0739 6.15661 11.06 6.03809 10H4.69824ZM2.66699 8C2.66699 8.17681 2.73728 8.34666 2.8623 8.47168C2.98722 8.59643 3.15647 8.66691 3.33301 8.667H4.66699V4.667H3.33301C3.15631 4.66708 2.98725 4.73736 2.8623 4.86231C2.73736 4.98726 2.66708 5.15632 2.66699 5.33301V8ZM14.667 10.667C14.6669 10.9143 14.5977 11.1567 14.4678 11.3672C14.3376 11.5778 14.1512 11.7486 13.9297 11.8594C13.7083 11.9701 13.4604 12.0163 13.2139 11.9941C12.9672 11.9719 12.7313 11.882 12.5332 11.7334C12.5286 11.73 12.524 11.7262 12.5195 11.7227C11.0591 10.5675 9.2418 9.95815 7.38086 9.99903C7.49196 10.77 7.79502 11.505 8.2666 12.1338C8.58472 12.5581 8.72148 13.0912 8.64648 13.6162C8.57146 14.1413 8.29054 14.6153 7.86621 14.9336C7.44193 15.2516 6.90872 15.3885 6.38379 15.3135C5.85869 15.2385 5.38467 14.9576 5.06641 14.5332C4.07524 13.2116 3.48573 11.638 3.35938 10H3.33301C2.80269 9.99992 2.29394 9.78906 1.91895 9.41407C1.54397 9.03901 1.33301 8.53036 1.33301 8V5.33301C1.33309 4.8027 1.54395 4.29394 1.91895 3.91895C2.29394 3.54395 2.80269 3.3331 3.33301 3.33301H7.33301C7.33873 3.33301 7.34486 3.33384 7.35059 3.33399C9.22214 3.38218 11.0512 2.77184 12.5195 1.61035L12.5332 1.59961C12.7313 1.45109 12.9673 1.3611 13.2139 1.33887C13.4603 1.31669 13.7083 1.36298 13.9297 1.47364C14.1512 1.58437 14.3376 1.75519 14.4678 1.96582C14.5979 2.17641 14.667 2.41946 14.667 2.667V10.667Z" fill="#737373"/>
</g>
</g>
</g>
</g>
</svg>
