<svg width="16" height="16" viewBox="0 0 16 16" fill="none" xmlns="http://www.w3.org/2000/svg">
<rect width="16" height="16" fill="#C7C7C7"/>
<g id="icons">
<rect width="232" height="519" transform="translate(-20 -140)" fill="white"/>
<g id="Frame 3">
<g id="icon">
<g id="data">
<g id="table">
<path d="M7.33301 14V2C7.33301 1.63181 7.63181 1.33301 8 1.33301C8.36819 1.33301 8.66699 1.63181 8.66699 2V14C8.66699 14.3682 8.36819 14.667 8 14.667C7.63181 14.667 7.33301 14.3682 7.33301 14Z" fill="#737373"/>
<path d="M13.333 3.33301C13.3328 2.96508 13.0349 2.66717 12.667 2.66699H3.33301C2.96508 2.66717 2.66717 2.96508 2.66699 3.33301V12.667C2.66717 13.0349 2.96508 13.3328 3.33301 13.333H12.667C13.0349 13.3328 13.3328 13.0349 13.333 12.667V3.33301ZM14.667 12.667C14.6668 13.7713 13.7713 14.6668 12.667 14.667H3.33301C2.2287 14.6668 1.33318 13.7713 1.33301 12.667V3.33301C1.33318 2.2287 2.2287 1.33318 3.33301 1.33301H12.667C13.7713 1.33318 14.6668 2.2287 14.667 3.33301V12.667Z" fill="#737373"/>
<path d="M14 5.33301C14.3682 5.33301 14.667 5.63181 14.667 6C14.667 6.36819 14.3682 6.66699 14 6.66699H2C1.63181 6.66699 1.33301 6.36819 1.33301 6C1.33301 5.63181 1.63181 5.33301 2 5.33301H14Z" fill="#737373"/>
<path d="M14 9.33301C14.3682 9.33301 14.667 9.63181 14.667 10C14.667 10.3682 14.3682 10.667 14 10.667H2C1.63181 10.667 1.33301 10.3682 1.33301 10C1.33301 9.63181 1.63181 9.33301 2 9.33301H14Z" fill="#737373"/>
</g>
</g>
</g>
</g>
</g>
</svg>
