<svg width="16" height="16" viewBox="0 0 16 16" fill="none" xmlns="http://www.w3.org/2000/svg">
<rect width="16" height="16" fill="#C7C7C7"/>
<g id="icons pool">
<rect width="579" height="868" transform="translate(-125 -525)" fill="white"/>
<g id="drag-up-down">
<g id="text-align-justify">
<path d="M14 2.66632C14.3682 2.66632 14.667 2.96512 14.667 3.33331C14.667 3.7015 14.3682 4.00031 14 4.00031H2C1.63181 4.00031 1.33301 3.7015 1.33301 3.33331C1.33301 2.96512 1.63181 2.66632 2 2.66632H14Z" fill="#737373"/>
<path d="M14 7.33299C14.3682 7.33299 14.667 7.63179 14.667 7.99998C14.667 8.36817 14.3682 8.66697 14 8.66697H2C1.63181 8.66697 1.33301 8.36817 1.33301 7.99998C1.33301 7.63179 1.63181 7.33299 2 7.33299H14Z" fill="#737373"/>
<path d="M14 11.9997C14.3682 11.9997 14.667 12.2985 14.667 12.6666C14.667 13.0348 14.3682 13.3336 14 13.3336H2C1.63181 13.3336 1.33301 13.0348 1.33301 12.6666C1.33301 12.2985 1.63181 11.9997 2 11.9997H14Z" fill="#737373"/>
</g>
</g>
</g>
</svg>
