<svg width="16" height="16" viewBox="0 0 16 16" fill="none" xmlns="http://www.w3.org/2000/svg">
<rect width="16" height="16" fill="#C7C7C7"/>
<g id="icons">
<rect width="232" height="519" transform="translate(-20 -140)" fill="white"/>
<g id="Frame 3">
<g id="icon">
<g id="house">
<g id="Vector">
<path d="M9.33301 14V8.66699H6.66699V14C6.66699 14.3682 6.36819 14.667 6 14.667C5.63181 14.667 5.33301 14.3682 5.33301 14V8.66699C5.33301 8.31336 5.47358 7.97368 5.72363 7.72363C5.97368 7.47358 6.31337 7.333 6.66699 7.333H9.33301C9.68663 7.333 10.0263 7.47358 10.2764 7.72363C10.5264 7.97368 10.667 8.31336 10.667 8.66699V14C10.667 14.3682 10.3682 14.667 10 14.667C9.63181 14.667 9.33301 14.3682 9.33301 14Z" fill="#737373"/>
<path d="M13.333 6.66602C13.333 6.56921 13.3122 6.47356 13.2715 6.38574C13.2307 6.29777 13.1707 6.21983 13.0967 6.15723L13.0938 6.1543L8.43066 2.15723L8.33496 2.08984C8.23383 2.03108 8.11833 2 8 2C7.84245 2 7.68966 2.05553 7.56934 2.15723L2.90625 6.1543L2.90332 6.15723C2.82925 6.21983 2.76933 6.29777 2.72852 6.38574C2.68778 6.47356 2.66704 6.56922 2.66699 6.66602V12.667C2.66708 12.8437 2.73736 13.0127 2.8623 13.1377C2.98725 13.2626 3.15632 13.3329 3.33301 13.333H12.667C12.8437 13.3329 13.0127 13.2626 13.1377 13.1377C13.2626 13.0127 13.3329 12.8437 13.333 12.667V6.66602ZM14.667 12.667C14.6669 13.1973 14.456 13.7061 14.0811 14.0811C13.7061 14.456 13.1973 14.6669 12.667 14.667H3.33301C2.80269 14.6669 2.29394 14.456 1.91895 14.0811C1.54395 13.7061 1.3331 13.1973 1.33301 12.667V6.66699C1.33294 6.37606 1.39708 6.08812 1.51953 5.82422C1.64196 5.56053 1.81997 5.32635 2.04199 5.13867L6.70508 1.1416L6.70898 1.13867C7.06996 0.833615 7.52739 0.666016 8 0.666016C8.41365 0.666016 8.81549 0.794726 9.15137 1.03125L9.29102 1.13867L9.29492 1.1416L13.958 5.13867L14.1162 5.28809C14.2657 5.44536 14.3887 5.62651 14.4805 5.82422C14.6029 6.08813 14.6671 6.37606 14.667 6.66699V12.667Z" fill="#737373"/>
</g>
</g>
</g>
</g>
</g>
</svg>
