<svg width="16" height="16" viewBox="0 0 16 16" fill="none" xmlns="http://www.w3.org/2000/svg">
<rect width="16" height="16" fill="#C7C7C7"/>
<g id="icons pool">
<rect width="579" height="868" transform="translate(-253 -307)" fill="white"/>
<g id="open-external-link">
<g id="square-arrow-out-up-right">
<path d="M1.33301 12.667V3.33301C1.33309 2.80269 1.54395 2.29394 1.91895 1.91895C2.29394 1.54395 2.80269 1.33309 3.33301 1.33301H7.33301C7.7012 1.33301 8 1.63181 8 2C8 2.36819 7.7012 2.66699 7.33301 2.66699H3.33301C3.15631 2.66708 2.98725 2.73736 2.8623 2.8623C2.73736 2.98725 2.66708 3.15631 2.66699 3.33301V12.667C2.66708 12.8437 2.73736 13.0127 2.8623 13.1377C2.98725 13.2626 3.15631 13.3329 3.33301 13.333H12.667C12.8437 13.3329 13.0127 13.2626 13.1377 13.1377C13.2626 13.0127 13.3329 12.8437 13.333 12.667V8.66699C13.333 8.2988 13.6318 8 14 8C14.3682 8 14.667 8.2988 14.667 8.66699V12.667C14.6669 13.1973 14.4561 13.7061 14.0811 14.0811C13.7061 14.4561 13.1973 14.6669 12.667 14.667H3.33301C2.80269 14.6669 2.29394 14.4561 1.91895 14.0811C1.54395 13.7061 1.33309 13.1973 1.33301 12.667Z" fill="#737373"/>
<path d="M13.5283 1.52832C13.7887 1.26797 14.2113 1.26797 14.4717 1.52832C14.732 1.78867 14.732 2.21133 14.4717 2.47168L8.47168 8.47168C8.21133 8.73203 7.78867 8.73203 7.52832 8.47168C7.26797 8.21133 7.26797 7.78867 7.52832 7.52832L13.5283 1.52832Z" fill="#737373"/>
<path d="M13.333 6V2.66699H10C9.63181 2.66699 9.33301 2.36819 9.33301 2C9.33301 1.63181 9.63181 1.33301 10 1.33301H14C14.3682 1.33301 14.667 1.63181 14.667 2V6C14.667 6.36819 14.3682 6.66699 14 6.66699C13.6318 6.66699 13.333 6.36819 13.333 6Z" fill="#737373"/>
</g>
</g>
</g>
</svg>
