<svg width="16" height="16" viewBox="0 0 16 16" fill="none" xmlns="http://www.w3.org/2000/svg">
<rect width="16" height="16" fill="#C7C7C7"/>
<g id="icons">
<rect width="232" height="519" transform="translate(-20 -104)" fill="white"/>
<g id="Frame 3">
<g id="icon">
<g id="overview">
<g id="square-check">
<path d="M13.333 3.33301C13.3328 2.96508 13.0349 2.66717 12.667 2.66699H3.33301C2.96508 2.66717 2.66717 2.96508 2.66699 3.33301V12.667C2.66717 13.0349 2.96508 13.3328 3.33301 13.333H12.667C13.0349 13.3328 13.3328 13.0349 13.333 12.667V3.33301ZM14.667 12.667C14.6668 13.7713 13.7713 14.6668 12.667 14.667H3.33301C2.2287 14.6668 1.33318 13.7713 1.33301 12.667V3.33301C1.33318 2.2287 2.2287 1.33318 3.33301 1.33301H12.667C13.7713 1.33318 14.6668 2.2287 14.667 3.33301V12.667Z" fill="#737373"/>
<path d="M9.52832 6.19499C9.78867 5.93464 10.2113 5.93464 10.4717 6.19499C10.732 6.45534 10.732 6.878 10.4717 7.13835L7.80469 9.80436C7.54434 10.0647 7.12265 10.0647 6.8623 9.80436L5.52832 8.47135C5.26824 8.2111 5.26835 7.78929 5.52832 7.52897C5.78867 7.26862 6.21133 7.26862 6.47168 7.52897L7.33301 8.3903L9.52832 6.19499Z" fill="#737373"/>
</g>
</g>
</g>
</g>
</g>
</svg>
