<svg width="16" height="16" viewBox="0 0 16 16" fill="none" xmlns="http://www.w3.org/2000/svg">
<rect width="16" height="16" fill="#C7C7C7"/>
<g id="icons">
<rect width="232" height="519" transform="translate(-20 -284)" fill="white"/>
<g id="Frame 3">
<g id="icon">
<g id="pinned-tabs">
<g id="app-window">
<path d="M14.0005 4C14.0003 3.63196 13.7016 3.33398 13.3335 3.33398H2.6665C2.29857 3.33416 2.00066 3.63207 2.00049 4V12C2.00049 12.3681 2.29846 12.6668 2.6665 12.667H13.3335C13.7017 12.667 14.0005 12.3682 14.0005 12V4ZM15.3335 12C15.3335 13.1046 14.4381 14 13.3335 14H2.6665C1.56208 13.9998 0.666504 13.1045 0.666504 12V4C0.66668 2.89569 1.56219 2.00018 2.6665 2H13.3335C14.438 2 15.3333 2.89558 15.3335 4V12Z" fill="#737373"/>
<path d="M5.99984 5.33398V2.66699C5.99984 2.2988 6.29864 2 6.66683 2C7.03502 2 7.33382 2.2988 7.33382 2.66699V5.33398C7.33365 5.70202 7.03491 6 6.66683 6C6.29875 6 6.00001 5.70202 5.99984 5.33398Z" fill="#737373"/>
<path d="M14.6665 4.66667C15.0347 4.66667 15.3335 4.96547 15.3335 5.33366C15.3335 5.70185 15.0347 6.00065 14.6665 6.00065H1.3335C0.965306 6.00065 0.666504 5.70185 0.666504 5.33366C0.666504 4.96547 0.965306 4.66667 1.3335 4.66667H14.6665Z" fill="#737373"/>
<path d="M3.33317 5.33398V2.66699C3.33317 2.2988 3.63197 2 4.00016 2C4.36835 2 4.66716 2.2988 4.66716 2.66699V5.33398C4.66698 5.70202 4.36824 6 4.00016 6C3.63208 6 3.33335 5.70202 3.33317 5.33398Z" fill="#737373"/>
</g>
</g>
</g>
</g>
</g>
</svg>
