<svg width="16" height="16" viewBox="0 0 16 16" fill="none" xmlns="http://www.w3.org/2000/svg">
<rect width="16" height="16" fill="#C7C7C7"/>
<g id="icons">
<rect width="232" height="519" transform="translate(-20 -248)" fill="white"/>
<g id="Frame 3">
<g id="icon">
<g id="workflow">
<g id="git-fork">
<path d="M9.33301 12C9.33301 11.2636 8.73638 10.667 8 10.667C7.26362 10.667 6.66699 11.2636 6.66699 12C6.66699 12.7364 7.26362 13.333 8 13.333C8.73638 13.333 9.33301 12.7364 9.33301 12ZM10.667 12C10.667 13.4728 9.47276 14.667 8 14.667C6.52724 14.667 5.33301 13.4728 5.33301 12C5.33301 10.5272 6.52724 9.33301 8 9.33301C9.47276 9.33301 10.667 10.5272 10.667 12Z" fill="#737373"/>
<path d="M5.33301 4C5.33301 3.26362 4.73638 2.66699 4 2.66699C3.26362 2.66699 2.66699 3.26362 2.66699 4C2.66699 4.73638 3.26362 5.33301 4 5.33301C4.73638 5.33301 5.33301 4.73638 5.33301 4ZM6.66699 4C6.66699 5.47276 5.47276 6.66699 4 6.66699C2.52724 6.66699 1.33301 5.47276 1.33301 4C1.33301 2.52724 2.52724 1.33301 4 1.33301C5.47276 1.33301 6.66699 2.52724 6.66699 4Z" fill="#737373"/>
<path d="M13.333 4C13.333 3.26362 12.7364 2.66699 12 2.66699C11.2636 2.66699 10.667 3.26362 10.667 4C10.667 4.73638 11.2636 5.33301 12 5.33301C12.7364 5.33301 13.333 4.73638 13.333 4ZM14.667 4C14.667 5.47276 13.4728 6.66699 12 6.66699C10.5272 6.66699 9.33301 5.47276 9.33301 4C9.33301 2.52724 10.5272 1.33301 12 1.33301C13.4728 1.33301 14.667 2.52724 14.667 4Z" fill="#737373"/>
<path d="M3.33301 6C3.33301 5.63181 3.63181 5.33301 4 5.33301C4.36819 5.33301 4.66699 5.63181 4.66699 6V7.33301H11.333V6C11.333 5.63181 11.6318 5.33301 12 5.33301C12.3682 5.33301 12.667 5.63181 12.667 6V7.33301C12.667 7.68451 12.5466 8.02957 12.2881 8.28809C12.0296 8.54661 11.6845 8.66699 11.333 8.66699H4.66699C4.31549 8.66699 3.97043 8.54661 3.71191 8.28809C3.45339 8.02957 3.33301 7.68451 3.33301 7.33301V6Z" fill="#737373"/>
<path d="M7.33301 10V8C7.33301 7.63181 7.63181 7.33301 8 7.33301C8.36819 7.33301 8.66699 7.63181 8.66699 8V10C8.66699 10.3682 8.36819 10.667 8 10.667C7.63181 10.667 7.33301 10.3682 7.33301 10Z" fill="#737373"/>
</g>
</g>
</g>
</g>
</g>
</svg>
